name rise34.3697peak60.0498fall86.3158.mot
datacolumns 19
datarows 23
range 20.88992100000000 20.92658800000000
endheader
time	ground_force1_vx	ground_force1_vy	ground_force1_vz	ground_force1_px	ground_force1_py	ground_force1_pz	ground_force2_vx	ground_force2_vy	ground_force2_vz	ground_force2_px	ground_force2_py	ground_force2_pz	ground_torque1_x	ground_torque1_y	ground_torque1_z	ground_torque2_x	ground_torque2_y	ground_torque2_z	
20.88992100000000	-39.15371300000000	812.30134299999997	59.88512900000000	0.19311100000000	0.00000000000000	0.09034200000000	-7.09816800000000	33.70575800000000	4.36200000000000	0.40526900000000	0.00000000000000	-0.09659300000000	0.00000000000000	28.61444900000000	0.00000000000000	0.00000000000000	2.64856500000000	0.00000000000000	
20.89159100000000	-39.50833600000000	810.31230500000004	59.81798800000000	0.19217900000000	0.00000000000000	0.09029300000000	-8.04463100000000	40.30590500000000	5.07277000000000	0.40879700000000	0.00000000000000	-0.09723800000000	0.00000000000000	28.49307000000000	0.00000000000000	0.00000000000000	3.13390600000000	0.00000000000000	
20.89325800000000	-39.87710700000000	808.18592400000000	59.72452600000000	0.19124500000000	0.00000000000000	0.09024000000000	-8.88522600000000	47.04967700000000	5.75597800000000	0.41206600000000	0.00000000000000	-0.09781600000000	0.00000000000000	28.36597900000000	0.00000000000000	0.00000000000000	3.61773900000000	0.00000000000000	
20.89492500000000	-40.26039400000000	805.92161299999998	59.60433100000000	0.19030800000000	0.00000000000000	0.09018200000000	-9.59042200000000	53.82611900000000	6.39427500000000	0.41511400000000	0.00000000000000	-0.09833700000000	0.00000000000000	28.23328100000000	0.00000000000000	0.00000000000000	4.08955200000000	0.00000000000000	
20.89658700000000	-40.65850100000000	803.51883099999998	59.45704200000000	0.18937000000000	0.00000000000000	0.09012100000000	-10.13837700000000	60.54314400000000	6.97382400000000	0.41797000000000	0.00000000000000	-0.09881100000000	0.00000000000000	28.09508800000000	0.00000000000000	0.00000000000000	4.54053100000000	0.00000000000000	
20.89825700000000	-41.07166100000000	800.97707500000001	59.28235700000000	0.18843000000000	0.00000000000000	0.09005500000000	-10.51564900000000	67.13213399999999	7.48484000000000	0.42066100000000	0.00000000000000	-0.09924500000000	0.00000000000000	27.95151500000000	0.00000000000000	0.00000000000000	4.96395300000000	0.00000000000000	
20.89992600000000	-41.50003700000000	798.29587800000002	59.08002800000000	0.18748800000000	0.00000000000000	0.08998500000000	-10.71713500000000	73.54988899999999	7.92172600000000	0.42320700000000	0.00000000000000	-0.09964600000000	0.00000000000000	27.80268600000000	0.00000000000000	0.00000000000000	5.35535700000000	0.00000000000000	
20.90158400000000	-41.94371700000000	795.47480299999995	58.84986100000000	0.18654700000000	0.00000000000000	0.08991100000000	-10.74532400000000	79.77816900000001	8.28282900000000	0.42562500000000	0.00000000000000	-0.10001800000000	0.00000000000000	27.64872600000000	0.00000000000000	0.00000000000000	5.71249800000000	0.00000000000000	
20.90325900000000	-42.40271200000000	792.51343699999995	58.59172300000000	0.18560500000000	0.00000000000000	0.08983300000000	-10.60906300000000	85.82125900000000	8.56992700000000	0.42792900000000	0.00000000000000	-0.10036500000000	0.00000000000000	27.48976600000000	0.00000000000000	0.00000000000000	6.03512300000000	0.00000000000000	
20.90492000000000	-42.87695400000000	789.41138799999999	58.30553700000000	0.18466400000000	0.00000000000000	0.08975000000000	-10.32201200000000	91.70210200000000	8.78751600000000	0.43013100000000	0.00000000000000	-0.10069000000000	0.00000000000000	27.32594100000000	0.00000000000000	0.00000000000000	6.32462500000000	0.00000000000000	
20.90658500000000	-43.36629500000000	786.16828499999997	57.99128300000000	0.18372300000000	0.00000000000000	0.08966300000000	-9.90097200000000	97.45757399999999	8.94200500000000	0.43224200000000	0.00000000000000	-0.10099700000000	0.00000000000000	27.15738600000000	0.00000000000000	0.00000000000000	6.58361800000000	0.00000000000000	
20.90825500000000	-43.87050200000000	782.78376900000001	57.64899900000000	0.18278500000000	0.00000000000000	0.08957100000000	-9.36424600000000	103.13343700000000	9.04088900000000	0.43426900000000	0.00000000000000	-0.10128900000000	0.00000000000000	26.98423900000000	0.00000000000000	0.00000000000000	6.81549000000000	0.00000000000000	
20.90991600000000	-44.38926000000000	779.25749800000006	57.27878300000000	0.18184800000000	0.00000000000000	0.08947500000000	-8.73015900000000	108.77943900000000	9.09198000000000	0.43622100000000	0.00000000000000	-0.10156600000000	0.00000000000000	26.80664000000000	0.00000000000000	0.00000000000000	7.02395800000000	0.00000000000000	
20.91159100000000	-44.92216600000000	775.58913700000005	56.88078900000000	0.18091400000000	0.00000000000000	0.08937400000000	-8.01582900000000	114.44492700000001	9.10275100000000	0.43810500000000	0.00000000000000	-0.10183100000000	0.00000000000000	26.62472700000000	0.00000000000000	0.00000000000000	7.21268700000000	0.00000000000000	
20.91325300000000	-45.46872900000000	771.77836400000001	56.45522700000000	0.17998400000000	0.00000000000000	0.08926900000000	-7.23624800000000	120.17522599999999	9.07981000000000	0.43992400000000	0.00000000000000	-0.10208600000000	0.00000000000000	26.43863800000000	0.00000000000000	0.00000000000000	7.38496600000000	0.00000000000000	
20.91492300000000	-46.02837200000000	767.82486600000004	56.00236500000000	0.17905800000000	0.00000000000000	0.08915900000000	-6.40367600000000	126.00893499999999	9.02853900000000	0.44168500000000	0.00000000000000	-0.10233100000000	0.00000000000000	26.24851000000000	0.00000000000000	0.00000000000000	7.54347600000000	0.00000000000000	
20.91658700000000	-46.60042800000000	763.72833900000001	55.52252600000000	0.17813600000000	0.00000000000000	0.08904500000000	-5.52735400000000	131.97617900000000	8.95289000000000	0.44339100000000	0.00000000000000	-0.10256800000000	0.00000000000000	26.05447700000000	0.00000000000000	0.00000000000000	7.69013800000000	0.00000000000000	
20.91825000000000	-47.18414200000000	759.48848999999996	55.01609000000000	0.17722000000000	0.00000000000000	0.08892700000000	-4.61349600000000	138.09778499999999	8.85531800000000	0.44504600000000	0.00000000000000	-0.10279700000000	0.00000000000000	25.85667000000000	0.00000000000000	0.00000000000000	7.82604900000000	0.00000000000000	
20.91992200000000	-47.77866800000000	755.10503500000004	54.48348700000000	0.17631000000000	0.00000000000000	0.08880400000000	-3.66550300000000	144.38526600000000	8.73685100000000	0.44665300000000	0.00000000000000	-0.10302000000000	0.00000000000000	25.65521700000000	0.00000000000000	0.00000000000000	7.95149500000000	0.00000000000000	
20.92158800000000	-48.38307200000000	750.57770400000004	53.92520300000000	0.17540600000000	0.00000000000000	0.08867700000000	-2.68435500000000	150.84148200000001	8.59724600000000	0.44821400000000	0.00000000000000	-0.10323800000000	0.00000000000000	25.45023900000000	0.00000000000000	0.00000000000000	8.06601500000000	0.00000000000000	
20.92325200000000	-48.99633100000000	745.90624200000002	53.34177300000000	0.17451000000000	0.00000000000000	0.08854500000000	-1.66910900000000	157.46178599999999	8.43521500000000	0.44973200000000	0.00000000000000	-0.10345000000000	0.00000000000000	25.24185500000000	0.00000000000000	0.00000000000000	8.16851900000000	0.00000000000000	
20.92491900000000	-49.61733500000000	741.09041000000002	52.73378300000000	0.17362200000000	0.00000000000000	0.08840900000000	-0.61745500000000	164.23549299999999	8.24869200000000	0.45120900000000	0.00000000000000	-0.10365800000000	0.00000000000000	25.03017400000000	0.00000000000000	0.00000000000000	8.25742800000000	0.00000000000000	
20.92658800000000	-50.24488800000000	736.12999200000002	52.10186400000000	0.17274300000000	0.00000000000000	0.08826900000000	0.47373200000000	171.14750100000001	8.03511200000000	0.45264500000000	0.00000000000000	-0.10386200000000	0.00000000000000	24.81530200000000	0.00000000000000	0.00000000000000	8.33082700000000	0.00000000000000	
